PathFileType	4	(X/Y/Z)	C:\Users\Basilio\Documents\Thesis Gigler\squatting_fais\c3dfiles\075\SJ_pre1\markers_experimental.trc
DataRate	CameraRate	NumFrames	NumMarkers	Units	OrigDataRate	OrigDataStartFrame	OrigNumFrames
200.000000	200.000000	4	61	mm	200.000000	410	1642
Frame#	Time	FHD			LBHD			C7			T10			CLAV			LSHO			LUUPA			LMUPA			LDUPA			LLEP			LMEP			LRAD			LUL			LRFIN			RSHO			RUPA1			RMUPA			RDUPA			RLEP			RMEP			RRAD			RUL			RUFIN			LASI			RASI			USACR			LSACR			RSACR			LTHI1			LTHI2			LTHI3			LTHI4			LLFC			LMFC			LTIB1			LTIB2			LTIB3			LTIB4			LLMAL			LMMAL			LHEE			LMT1			LMT2			LMT5			RTHI			RTHI2			RTHI3			RTHI4			RLFC			RMFC			RTIB1			RTIB2			RTIB3			RTIB4			RLMAL			RMMAL			RHEE			RMT1			RMT2			RMT5			RBHD			
		X1	Y1	Z1	X2	Y2	Z2	X3	Y3	Z3	X4	Y4	Z4	X5	Y5	Z5	X6	Y6	Z6	X7	Y7	Z7	X8	Y8	Z8	X9	Y9	Z9	X10	Y10	Z10	X11	Y11	Z11	X12	Y12	Z12	X13	Y13	Z13	X14	Y14	Z14	X15	Y15	Z15	X16	Y16	Z16	X17	Y17	Z17	X18	Y18	Z18	X19	Y19	Z19	X20	Y20	Z20	X21	Y21	Z21	X22	Y22	Z22	X23	Y23	Z23	X24	Y24	Z24	X25	Y25	Z25	X26	Y26	Z26	X27	Y27	Z27	X28	Y28	Z28	X29	Y29	Z29	X30	Y30	Z30	X31	Y31	Z31	X32	Y32	Z32	X33	Y33	Z33	X34	Y34	Z34	X35	Y35	Z35	X36	Y36	Z36	X37	Y37	Z37	X38	Y38	Z38	X39	Y39	Z39	X40	Y40	Z40	X41	Y41	Z41	X42	Y42	Z42	X43	Y43	Z43	X44	Y44	Z44	X45	Y45	Z45	X46	Y46	Z46	X47	Y47	Z47	X48	Y48	Z48	X49	Y49	Z49	X50	Y50	Z50	X51	Y51	Z51	X52	Y52	Z52	X53	Y53	Z53	X54	Y54	Z54	X55	Y55	Z55	X56	Y56	Z56	X57	Y57	Z57	X58	Y58	Z58	X59	Y59	Z59	X60	Y60	Z60	X61	Y61	Z61	

411	2.05	-168.3344879150391	1695.86376953125	-895.0811157226565	-301.9417114257813	1565.747436523438	-966.922302246094	-343.5194396972657	1457.9306640625	-903.6533203125002	-372.0626831054688	1133.162719726563	-905.0792236328127	-202.9153900146485	1390.593017578125	-901.1492309570315	-247.1421813964844	1427.609130859375	-1060.846801757813	-298.2329406738282	1283.404174804688	-1225.052856445313	-264.9526367187501	1246.527221679688	-1218.46435546875	-297.0979919433594	1225.731323242188	-1265.283813476563	-293.2356262207032	1141.922485351563	-1293.688110351563	-371.5833740234376	1131.294555664063	-1244.264282226563	-260.2781372070313	962.3221435546877	-1122.276123046875	-223.592025756836	923.4851074218752	-1176.163940429688	-214.0348510742188	947.3428344726565	-1082.112182617188	-242.750961303711	1427.092895507813	-739.6322021484376	-302.2093200683594	1282.653564453125	-582.2954101562501	-273.4113464355469	1241.692138671875	-585.1227416992189	-312.3484191894532	1224.761474609375	-541.9659423828126	-313.7581481933594	1156.5703125	-515.0347900390626	-386.8725891113282	1128.97998046875	-549.2240600585939	-260.2614746093751	967.1054687500002	-691.6727905273439	-219.1730499267579	941.7217407226565	-632.5429687500001	-201.8780212402344	960.4906005859377	-729.1236572265626	-200.5630645751954	942.8402099609377	-1030.573852539063	-196.9245910644532	957.1265258789065	-778.6541748046877	-357.3074340820313	1035.21240234375	-906.779235839844	-364.3870239257813	1002.892639160156	-933.394226074219	-363.2812500000001	1005.647827148438	-876.2146606445315	-276.5762939453126	718.7495727539064	-1107.17236328125	-254.0768432617188	637.9290771484376	-1107.830688476563	-207.6468200683594	638.6472778320314	-1090.594360351563	-285.9548339843751	587.4461059570314	-1098.815185546875	-299.2625427246094	480.3307495117189	-1087.879272460938	-254.6103057861329	461.0023498535157	-975.8479614257815	-258.3105773925782	352.8279418945313	-1071.385131835938	-323.7957763671876	321.5572814941407	-1118.31689453125	-281.9514465332032	310.4422302246094	-1101.616821289063	-290.8701171875001	229.0967864990235	-1078.564453125	-380.0495605468751	95.96146392822267	-1096.903198242188	-340.9556274414063	100.5177688598633	-1019.817504882813	-428.6705017089845	50.928524017334	-1051.978393554688	-215.6899719238282	51.43880081176759	-1062.540649414063	-222.6551971435547	56.37015914916994	-1111.037719726563	-267.3486938476563	42.42924118041993	-1159.006103515625	-272.8629455566407	774.7534790039065	-700.1932983398439	-239.0255432128907	718.7930908203126	-699.3947143554689	-208.1197509765626	721.7624511718751	-712.2561645507814	-273.4525756835938	639.9560546875001	-702.8417358398439	-297.3789978027344	486.742156982422	-724.7060546875001	-259.2184448242188	465.3106384277345	-844.5590820312502	-260.5652770996094	331.7305908203126	-772.3210449218752	-318.7665405273438	263.7344970703126	-708.1785888671876	-282.4461364746094	253.4437255859376	-737.9353637695314	-293.7090148925782	206.001693725586	-769.3369750976565	-373.9248046875001	92.51599884033205	-725.9896240234376	-338.1599731445313	107.9904327392578	-806.3586425781252	-420.3596191406251	50.28062438964845	-780.6538696289065	-210.6526336669922	58.03417968750001	-761.0892944335939	-217.2304840087891	58.73855590820314	-719.5442504882814	-256.8460388183594	35.71636581420899	-670.0191650390626	-271.3174743652344	1605.471557617188	-812.6220703125002	
412	2.055	-167.8440246582032	1695.661865234375	-895.1234130859377	-301.8402099609376	1565.733032226563	-966.9273071289065	-343.3655700683594	1458.003295898438	-903.620544433594	-372.0199279785157	1133.19287109375	-905.1067504882815	-202.7084045410157	1390.506469726563	-901.1268310546877	-246.9649505615235	1427.588012695313	-1060.831298828125	-298.1024780273438	1283.35400390625	-1225.024536132813	-264.2835388183594	1246.382934570313	-1218.26123046875	-297.0156555175782	1225.6826171875	-1265.23876953125	-293.2093811035157	1141.9521484375	-1293.696166992188	-371.5810546875001	1131.317749023438	-1244.239135742188	-260.3741760253907	962.2993774414065	-1122.226196289063	-223.7766265869141	923.4862060546877	-1176.23681640625	-214.1871337890626	947.3557739257815	-1082.103149414063	-242.5700988769532	1427.083984375	-739.6521606445314	-302.1845397949219	1282.673583984375	-582.2920532226564	-273.4122314453126	1241.747924804688	-585.0900268554689	-312.3301696777344	1224.801025390625	-541.9168090820314	-313.7623596191407	1156.622680664063	-515.0160522460939	-386.9010009765626	1129.17138671875	-548.9910278320314	-260.4548034667969	967.127380371094	-691.6368408203126	-219.3225097656251	941.7758789062502	-632.5334472656251	-202.049057006836	960.472839355469	-729.2161865234376	-200.5559234619141	942.789978027344	-1030.542846679688	-197.2323608398438	957.091735839844	-778.667907714844	-357.4826049804688	1035.24755859375	-906.800476074219	-364.4589843750001	1002.903198242188	-933.4128417968752	-363.5084838867188	1005.706909179688	-876.197692871094	-276.5371704101563	719.0454101562501	-1107.294677734375	-254.0152130126954	637.8996582031251	-1107.893798828125	-207.6255340576172	638.6505126953126	-1090.627685546875	-285.8834228515626	587.3949584960939	-1098.990478515625	-299.0223693847657	480.3562622070314	-1087.909423828125	-254.3646392822266	460.961639404297	-976.0247802734377	-258.0729370117188	352.8237304687501	-1071.462768554688	-323.6037292480469	321.5018920898438	-1118.402587890625	-281.8353271484376	310.4331970214844	-1101.688110351563	-290.8519592285157	228.9341125488282	-1078.629028320313	-380.0580139160157	95.96153259277345	-1096.907836914063	-340.9016723632813	100.5030364990235	-1019.834594726563	-428.6629028320314	50.87452697753908	-1051.966552734375	-215.7064666748047	51.42965316772462	-1062.5087890625	-222.7463989257813	56.34473800659181	-1111.07177734375	-267.3580017089844	42.45919799804688	-1158.991943359375	-272.9664001464844	774.7062988281252	-700.2122802734376	-239.0046844482422	718.7655029296876	-699.2171020507814	-208.1685028076172	721.7505493164064	-712.0637207031251	-273.3548889160157	639.8741455078126	-702.7269287109376	-297.0668334960938	486.6498413085939	-724.5568847656251	-258.8959350585938	465.2056579589845	-844.5004882812502	-260.3538818359376	331.6502075195313	-772.217224121094	-318.5540466308594	263.7211914062501	-708.0816650390626	-281.9287109375001	253.1323547363282	-737.6024780273439	-293.5318603515626	205.977279663086	-769.2998046875002	-373.8815307617188	92.52618408203126	-725.9786987304689	-338.0744018554688	108.0046463012696	-806.350036621094	-420.411590576172	50.36826324462892	-780.6497802734377	-210.7647552490235	57.98390197753908	-761.1248168945314	-217.1685943603516	58.75615692138673	-719.5399169921876	-256.9066162109376	35.68003082275391	-670.0643920898439	-270.7957458496094	1605.596435546875	-812.833190917969	
413	2.06	-167.4853668212891	1695.542602539063	-895.300964355469	-301.4894104003907	1565.712646484375	-966.9989013671877	-343.2455444335938	1457.964599609375	-903.685729980469	-372.0317993164063	1133.205810546875	-905.0817871093752	-202.5077667236329	1390.475708007813	-901.0996093750002	-246.3923492431641	1427.471557617188	-1060.5693359375	-297.9771423339844	1283.350708007813	-1225.025268554688	-264.7976989746094	1246.49267578125	-1218.448608398438	-297.0372009277344	1225.713745117188	-1265.266723632813	-293.2026977539063	1141.932006835938	-1293.670776367188	-371.5763854980469	1131.336791992188	-1244.236572265625	-260.4053344726563	962.2500000000002	-1122.289184570313	-223.8602294921876	923.4589843750002	-1176.224853515625	-214.4278717041016	947.2473754882815	-1082.0966796875	-242.4799194335938	1427.099487304688	-739.6495971679689	-302.1473388671876	1282.710693359375	-582.2518920898439	-273.4477233886719	1241.723022460938	-585.2034301757814	-312.3426513671876	1224.928588867188	-541.9005737304689	-313.7947387695313	1156.682739257813	-514.9657592773439	-387.0050659179689	1129.251220703125	-549.0134887695314	-260.6319580078126	967.142761230469	-691.6001586914064	-219.4956665039063	941.7846679687502	-632.5554809570314	-202.2803039550782	960.4522094726565	-729.2484130859376	-200.7658386230469	942.697448730469	-1030.502319335938	-197.4973907470704	957.0266723632815	-778.6333007812502	-357.5880737304688	1035.356567382813	-906.8406982421877	-364.6471862792969	1002.956970214844	-933.4584960937502	-363.6776123046876	1005.790405273438	-876.2363891601565	-276.5729370117188	718.9880981445314	-1107.43896484375	-253.9869232177735	637.8814697265626	-1107.970703125	-207.3998413085938	638.6353759765626	-1090.6328125	-285.7607116699219	587.3638305664064	-1099.079956054688	-298.7316589355469	480.2877502441407	-1088.020263671875	-254.1033630371094	460.8929748535157	-976.2165527343752	-257.9063415527344	352.7019958496094	-1071.574096679688	-323.4202575683594	321.4837036132813	-1118.471801757813	-281.5766601562501	310.3392028808594	-1101.750366210938	-290.6022644042969	228.9192352294922	-1078.623779296875	-379.9801330566407	95.93311309814455	-1096.931640625	-340.9010314941407	100.495346069336	-1019.895141601563	-428.7415161132814	51.00746917724611	-1051.975341796875	-215.6261596679688	51.42232131958009	-1062.473022460938	-222.6219329833985	56.35871887207033	-1111.019287109375	-267.2935180664063	42.43475723266602	-1159.01611328125	-273.0863647460938	774.6538696289065	-700.1571044921876	-239.0680847167969	718.7169799804689	-699.1744384765626	-208.1706542968751	721.8054809570314	-711.9474487304689	-273.2926635742188	639.7998657226564	-702.6531982421876	-296.6540832519532	486.5532836914064	-724.4110107421876	-258.5252685546876	465.1641540527345	-844.309265136719	-260.0727539062501	331.5897521972657	-772.1000976562502	-318.3370971679688	263.6483154296876	-708.0070800781251	-282.6854858398438	253.3279266357422	-738.0322265625001	-294.3444519042969	205.8620147705079	-769.8294677734377	-373.8317565917969	92.57840728759767	-725.9487915039064	-338.1308898925782	108.0998992919922	-806.3787841796877	-420.3531494140626	50.3337745666504	-780.634948730469	-210.6773834228516	58.00808715820314	-761.0746459960939	-217.1671142578126	58.77015686035158	-719.5317993164064	-256.9543151855469	35.67841339111329	-670.0596313476564	-270.4285888671876	1605.668212890625	-812.8708496093752	
414	2.065	-167.0848236083985	1695.397705078125	-895.3428344726565	-301.1676940917969	1565.651489257813	-966.9263916015627	-343.0335998535157	1457.986206054688	-903.6397094726565	-372.0311584472657	1133.277587890625	-905.0762939453127	-202.2604522705079	1390.361206054688	-901.058776855469	-246.6440582275391	1427.542724609375	-1060.925537109375	-297.9494323730469	1283.391479492188	-1225.017700195313	-264.0591735839844	1246.266967773438	-1218.237548828125	-296.8457031250001	1225.658081054688	-1265.224365234375	-293.1569213867188	1141.919921875	-1293.660766601563	-371.5628051757813	1131.3505859375	-1244.230346679688	-260.5858154296876	962.1777343750002	-1122.31298828125	-223.9241943359376	923.4111938476565	-1176.164184570313	-214.585922241211	947.1980590820315	-1082.059326171875	-242.2719421386719	1427.096801757813	-739.6109008789064	-302.0423889160157	1282.765014648438	-582.2310180664064	-273.3097229003907	1241.786254882813	-585.0172729492189	-312.2875671386719	1224.954223632813	-541.8490600585939	-313.8039550781251	1156.732543945313	-514.9230957031251	-387.0510559082032	1129.4150390625	-548.8917846679689	-260.9128723144532	967.1828613281252	-691.6177368164064	-219.7829589843751	941.721618652344	-632.5621337890626	-202.5293884277344	960.3823852539065	-729.2558593750001	-200.8022766113282	942.6235961914065	-1030.476928710938	-197.7890930175782	956.9340820312502	-778.6035156250002	-357.7222290039063	1035.45068359375	-906.8852539062502	-364.7899169921876	1003.060180664063	-933.5091552734377	-363.8475036621094	1005.848754882813	-876.2954101562502	-276.6196594238282	718.9253540039064	-1107.441650390625	-253.9753417968751	637.8585815429689	-1108.061157226563	-207.5464630126954	638.6356811523439	-1090.823364257813	-285.8036499023438	587.3899536132814	-1099.296020507813	-298.5410461425782	480.3226623535157	-1088.1875	-253.8470001220704	460.8126220703126	-976.4592895507815	-257.5752868652344	352.6640319824219	-1071.663452148438	-323.1918029785157	321.4213562011719	-1118.574951171875	-281.1378173828126	310.2939758300782	-1101.88134765625	-290.3566894531251	228.8926544189454	-1078.669799804688	-380.0062561035157	95.96839904785158	-1096.933715820313	-340.8865661621094	100.5037918090821	-1019.872009277344	-428.6155090332032	50.89275360107423	-1051.980224609375	-215.6542358398438	51.34980773925783	-1062.503784179688	-222.6270294189454	56.33469772338869	-1111.028686523438	-267.2986450195313	42.43488693237305	-1159.010131835938	-273.2394714355469	774.5843505859377	-700.1300048828126	-239.1128082275391	718.7669067382814	-699.0016479492189	-208.2061920166016	721.8541870117189	-711.7655029296876	-273.1831359863282	639.7507324218751	-702.5241699218751	-296.1631469726563	486.5042724609376	-724.2048339843751	-258.2120971679688	465.1182861328126	-844.201354980469	-259.8076782226563	331.5108642578126	-772.0469360351565	-318.0982666015626	263.5860595703126	-707.8436889648439	-282.0335998535157	253.0528259277344	-737.7158813476564	-294.0725708007813	206.0603179931641	-769.7818603515627	-373.7994689941407	92.60667419433595	-725.9685668945314	-337.9916687011719	108.0373687744141	-806.2693481445315	-420.3042297363282	50.40084075927736	-780.653747558594	-210.7299194335938	57.96989822387697	-761.1525268554689	-217.1459960937501	58.75554656982423	-719.5160522460939	-256.9315795898438	35.69186401367188	-670.0646362304689	-269.9897155761719	1605.720947265625	-813.0863037109377	
